<svg width="600" height="400" viewBox="0 0 600 400" xmlns="http://www.w3.org/2000/svg">
  <defs>
    <linearGradient id="chBellTop" x1="0%" y1="0%" x2="100%" y2="100%">
      <stop offset="0%" stop-color="#6b7280"/>
      <stop offset="25%" stop-color="#9ca3af"/>
      <stop offset="50%" stop-color="#d1d5db"/>
      <stop offset="75%" stop-color="#9ca3af"/>
      <stop offset="100%" stop-color="#6b7280"/>
    </linearGradient>
    <linearGradient id="chBellSide" x1="0%" y1="0%" x2="0%" y2="100%">
      <stop offset="0%" stop-color="#9ca3af"/>
      <stop offset="50%" stop-color="#6b7280"/>
      <stop offset="100%" stop-color="#4b5563"/>
    </linearGradient>
    <linearGradient id="chStator" x1="0%" y1="0%" x2="0%" y2="100%">
      <stop offset="0%" stop-color="#1f2937"/>
      <stop offset="100%" stop-color="#111827"/>
    </linearGradient>
    <linearGradient id="chAccent" x1="0%" y1="0%" x2="100%" y2="0%">
      <stop offset="0%" stop-color="#f6a604"/>
      <stop offset="100%" stop-color="#fbbf24"/>
    </linearGradient>
    <linearGradient id="chShaft" x1="0%" y1="0%" x2="100%" y2="0%">
      <stop offset="0%" stop-color="#9ca3af"/>
      <stop offset="50%" stop-color="#e5e7eb"/>
      <stop offset="100%" stop-color="#9ca3af"/>
    </linearGradient>
    <linearGradient id="chCopper" x1="0%" y1="0%" x2="0%" y2="100%">
      <stop offset="0%" stop-color="#d97706"/>
      <stop offset="100%" stop-color="#92400e"/>
    </linearGradient>
    <radialGradient id="chGlow" cx="50%" cy="50%" r="50%">
      <stop offset="0%" stop-color="#f6a604" stop-opacity="0.08"/>
      <stop offset="100%" stop-color="#f6a604" stop-opacity="0"/>
    </radialGradient>
    <filter id="chShadow" x="-20%" y="-10%" width="140%" height="140%">
      <feDropShadow dx="0" dy="5" stdDeviation="8" flood-color="#000" flood-opacity="0.3"/>
    </filter>
    <filter id="chShadowSm" x="-20%" y="-10%" width="140%" height="140%">
      <feDropShadow dx="0" dy="3" stdDeviation="5" flood-color="#000" flood-opacity="0.25"/>
    </filter>
  </defs>

  <!-- Background glow -->
  <circle cx="250" cy="200" r="250" fill="url(#chGlow)"/>

  <!-- === PRIMARY MOTOR (WR2815) - Center, large === -->
  <g transform="translate(230, 190)" filter="url(#chShadow)">
    <ellipse cx="0" cy="38" rx="72" ry="21" fill="#0f172a" stroke="#1e293b" stroke-width="0.5"/>
    <path d="M-72,15 L-72,34 Q0,44 72,34 L72,15 Z" fill="url(#chStator)" stroke="#1e293b" stroke-width="0.5"/>
    <g opacity="0.8">
      <rect x="-62" y="17" width="11" height="18" rx="1.5" fill="url(#chCopper)" opacity="0.7"/>
      <rect x="-47" y="17" width="11" height="18" rx="1.5" fill="url(#chCopper)" opacity="0.85"/>
      <rect x="-32" y="17" width="11" height="18" rx="1.5" fill="url(#chCopper)" opacity="0.9"/>
      <rect x="-17" y="17" width="11" height="18" rx="1.5" fill="url(#chCopper)" opacity="0.85"/>
      <rect x="-2" y="17" width="11" height="18" rx="1.5" fill="url(#chCopper)" opacity="0.8"/>
      <rect x="13" y="17" width="11" height="18" rx="1.5" fill="url(#chCopper)" opacity="0.9"/>
      <rect x="28" y="17" width="11" height="18" rx="1.5" fill="url(#chCopper)" opacity="0.85"/>
      <rect x="43" y="17" width="11" height="18" rx="1.5" fill="url(#chCopper)" opacity="0.75"/>
      <rect x="58" y="17" width="11" height="18" rx="1.5" fill="url(#chCopper)" opacity="0.65"/>
    </g>
    <path d="M-72,-16 L-72,15 Q0,25 72,15 L72,-16" fill="url(#chBellSide)" stroke="#4b5563" stroke-width="0.5"/>
    <g opacity="0.35">
      <rect x="-55" y="-10" width="2.5" height="20" rx="1" fill="#1f2937"/>
      <rect x="-40" y="-11" width="2.5" height="22" rx="1" fill="#1f2937"/>
      <rect x="-25" y="-12" width="2.5" height="24" rx="1" fill="#1f2937"/>
      <rect x="-10" y="-12" width="2.5" height="24" rx="1" fill="#1f2937"/>
      <rect x="5" y="-12" width="2.5" height="24" rx="1" fill="#1f2937"/>
      <rect x="20" y="-12" width="2.5" height="24" rx="1" fill="#1f2937"/>
      <rect x="35" y="-11" width="2.5" height="22" rx="1" fill="#1f2937"/>
      <rect x="50" y="-10" width="2.5" height="20" rx="1" fill="#1f2937"/>
    </g>
    <ellipse cx="0" cy="-16" rx="72" ry="21" fill="url(#chBellTop)" stroke="#6b7280" stroke-width="0.5"/>
    <ellipse cx="0" cy="-16" rx="64" ry="19" fill="none" stroke="url(#chAccent)" stroke-width="2.5"/>
    <ellipse cx="0" cy="-16" rx="50" ry="15" fill="none" stroke="#9ca3af" stroke-width="0.3" opacity="0.4"/>
    <ellipse cx="0" cy="-16" rx="36" ry="11" fill="none" stroke="#9ca3af" stroke-width="0.3" opacity="0.3"/>
    <ellipse cx="0" cy="-16" rx="16" ry="5" fill="#374151" stroke="#4b5563" stroke-width="0.5"/>
    <rect x="-4.5" y="-48" width="9" height="34" rx="4.5" fill="url(#chShaft)" stroke="#6b7280" stroke-width="0.3"/>
    <ellipse cx="0" cy="-48" rx="6" ry="2" fill="#d1d5db"/>
    <ellipse cx="0" cy="-45" rx="4.5" ry="1.8" fill="#f6a604"/>
    <g stroke-width="2" fill="none" stroke-linecap="round">
      <path d="M-55 30 Q-68 44 -72 58" stroke="#dc2626"/>
      <path d="M-51 32 Q-64 47 -67 62" stroke="#1d4ed8"/>
      <path d="M-47 33 Q-60 49 -63 65" stroke="#f6a604"/>
    </g>
  </g>

  <!-- === SECONDARY MOTOR (WR2212) - Right, smaller === -->
  <g transform="translate(440, 155)" filter="url(#chShadowSm)" opacity="0.85">
    <ellipse cx="0" cy="24" rx="46" ry="14" fill="#0f172a" stroke="#1e293b" stroke-width="0.5"/>
    <path d="M-46,8 L-46,20 Q0,28 46,20 L46,8 Z" fill="url(#chStator)" stroke="#1e293b" stroke-width="0.5"/>
    <g opacity="0.75">
      <rect x="-38" y="10" width="8" height="12" rx="1" fill="url(#chCopper)" opacity="0.7"/>
      <rect x="-26" y="10" width="8" height="12" rx="1" fill="url(#chCopper)" opacity="0.85"/>
      <rect x="-14" y="10" width="8" height="12" rx="1" fill="url(#chCopper)" opacity="0.9"/>
      <rect x="-2" y="10" width="8" height="12" rx="1" fill="url(#chCopper)" opacity="0.8"/>
      <rect x="10" y="10" width="8" height="12" rx="1" fill="url(#chCopper)" opacity="0.85"/>
      <rect x="22" y="10" width="8" height="12" rx="1" fill="url(#chCopper)" opacity="0.7"/>
    </g>
    <path d="M-46,-10 L-46,8 Q0,16 46,8 L46,-10" fill="url(#chBellSide)" stroke="#4b5563" stroke-width="0.5"/>
    <ellipse cx="0" cy="-10" rx="46" ry="14" fill="url(#chBellTop)" stroke="#6b7280" stroke-width="0.5"/>
    <ellipse cx="0" cy="-10" rx="41" ry="12" fill="none" stroke="url(#chAccent)" stroke-width="2"/>
    <ellipse cx="0" cy="-10" rx="12" ry="4" fill="#374151" stroke="#4b5563" stroke-width="0.5"/>
    <rect x="-3" y="-30" width="6" height="22" rx="3" fill="url(#chShaft)" stroke="#6b7280" stroke-width="0.3"/>
    <ellipse cx="0" cy="-30" rx="4.5" ry="1.5" fill="#d1d5db"/>
    <ellipse cx="0" cy="-28" rx="3.5" ry="1.3" fill="#f6a604"/>
  </g>

  <!-- === TERTIARY MOTOR (WR3508) - Left back, medium === -->
  <g transform="translate(90, 230)" filter="url(#chShadowSm)" opacity="0.7">
    <ellipse cx="0" cy="30" rx="56" ry="16" fill="#0f172a" stroke="#1e293b" stroke-width="0.5"/>
    <path d="M-56,12 L-56,26 Q0,34 56,26 L56,12 Z" fill="url(#chStator)" stroke="#1e293b" stroke-width="0.5"/>
    <g opacity="0.7">
      <rect x="-48" y="14" width="10" height="14" rx="1" fill="url(#chCopper)" opacity="0.7"/>
      <rect x="-34" y="14" width="10" height="14" rx="1" fill="url(#chCopper)" opacity="0.85"/>
      <rect x="-20" y="14" width="10" height="14" rx="1" fill="url(#chCopper)" opacity="0.9"/>
      <rect x="-6" y="14" width="10" height="14" rx="1" fill="url(#chCopper)" opacity="0.8"/>
      <rect x="8" y="14" width="10" height="14" rx="1" fill="url(#chCopper)" opacity="0.85"/>
      <rect x="22" y="14" width="10" height="14" rx="1" fill="url(#chCopper)" opacity="0.75"/>
      <rect x="36" y="14" width="10" height="14" rx="1" fill="url(#chCopper)" opacity="0.65"/>
    </g>
    <path d="M-56,-12 L-56,12 Q0,20 56,12 L56,-12" fill="url(#chBellSide)" stroke="#4b5563" stroke-width="0.5"/>
    <ellipse cx="0" cy="-12" rx="56" ry="16" fill="url(#chBellTop)" stroke="#6b7280" stroke-width="0.5"/>
    <ellipse cx="0" cy="-12" rx="50" ry="14" fill="none" stroke="url(#chAccent)" stroke-width="2"/>
    <ellipse cx="0" cy="-12" rx="14" ry="4.5" fill="#374151" stroke="#4b5563" stroke-width="0.5"/>
    <rect x="-4" y="-38" width="8" height="28" rx="4" fill="url(#chShaft)" stroke="#6b7280" stroke-width="0.3"/>
    <ellipse cx="0" cy="-38" rx="5.5" ry="1.8" fill="#d1d5db"/>
    <ellipse cx="0" cy="-36" rx="4" ry="1.5" fill="#f6a604"/>
  </g>

  <!-- Spec card overlay -->
  <g transform="translate(380, 280)">
    <rect width="190" height="90" rx="8" fill="rgba(15,23,42,0.9)" stroke="rgba(246,166,4,0.3)" stroke-width="1"/>
    <text x="95" y="22" font-family="'Plus Jakarta Sans', sans-serif" font-size="14" font-weight="700" text-anchor="middle" fill="#f6a604">Commercial Series</text>
    <text x="16" y="42" font-family="'Inter', sans-serif" font-size="11" fill="#94a3b8">2-15kg payload capacity</text>
    <text x="16" y="58" font-family="'Inter', sans-serif" font-size="11" fill="#94a3b8">6S-8S voltage range</text>
    <text x="16" y="74" font-family="'Inter', sans-serif" font-size="11" fill="#94a3b8">96-99% efficiency</text>
  </g>

  <!-- Brand watermark -->
  <text x="560" y="390" font-family="'Plus Jakarta Sans', sans-serif" font-size="12" font-weight="700" text-anchor="end" fill="#f6a604" opacity="0.6">WelkinRim</text>
</svg>