<svg width="300" height="300" viewBox="0 0 300 300" xmlns="http://www.w3.org/2000/svg">
  <defs>
    <!-- Gradients -->
    <linearGradient id="motorGradient" x1="0%" y1="0%" x2="100%" y2="100%">
      <stop offset="0%" style="stop-color:#f6a604;stop-opacity:1" />
      <stop offset="50%" style="stop-color:#f1d600;stop-opacity:1" />
      <stop offset="100%" style="stop-color:#ffab00;stop-opacity:1" />
    </linearGradient>
    
    <linearGradient id="metalGradient" x1="0%" y1="0%" x2="100%" y2="100%">
      <stop offset="0%" style="stop-color:#e0e0e0;stop-opacity:1" />
      <stop offset="50%" style="stop-color:#c0c0c0;stop-opacity:1" />
      <stop offset="100%" style="stop-color:#a0a0a0;stop-opacity:1" />
    </linearGradient>
    
    <radialGradient id="centerGradient" cx="50%" cy="50%" r="50%">
      <stop offset="0%" style="stop-color:#ffffff;stop-opacity:1" />
      <stop offset="70%" style="stop-color:#f6a604;stop-opacity:1" />
      <stop offset="100%" style="stop-color:#f1d600;stop-opacity:1" />
    </radialGradient>
    
    <!-- Drop shadow filter -->
    <filter id="dropShadow" x="-20%" y="-20%" width="140%" height="140%">
      <feDropShadow dx="2" dy="4" stdDeviation="3" flood-color="#000000" flood-opacity="0.3"/>
    </filter>
  </defs>
  
  <!-- Background circle for depth -->
  <circle cx="150" cy="150" r="140" fill="#f8f9fa" stroke="#e9ecef" stroke-width="2"/>
  
  <!-- Motor body (main cylinder) -->
  <g filter="url(#dropShadow)">
    <!-- Main motor housing -->
    <ellipse cx="150" cy="150" rx="80" ry="60" fill="url(#metalGradient)" stroke="#666" stroke-width="2"/>
    
    <!-- Motor housing details -->
    <ellipse cx="150" cy="140" rx="75" ry="55" fill="url(#motorGradient)" stroke="#333" stroke-width="1"/>
    
    <!-- Cooling fins -->
    <rect x="80" y="130" width="140" height="3" fill="#999" opacity="0.7"/>
    <rect x="80" y="140" width="140" height="3" fill="#999" opacity="0.7"/>
    <rect x="80" y="150" width="140" height="3" fill="#999" opacity="0.7"/>
    <rect x="80" y="160" width="140" height="3" fill="#999" opacity="0.7"/>
    <rect x="80" y="170" width="140" height="3" fill="#999" opacity="0.7"/>
    
    <!-- Motor shaft -->
    <circle cx="150" cy="150" r="15" fill="url(#centerGradient)" stroke="#333" stroke-width="2"/>
    
    <!-- Magnet segments -->
    <g stroke="#333" stroke-width="1" opacity="0.8">
      <path d="M 150 90 A 60 60 0 0 1 210 150" fill="#d32f2f" opacity="0.3"/>
      <path d="M 210 150 A 60 60 0 0 1 150 210" fill="#1976d2" opacity="0.3"/>
      <path d="M 150 210 A 60 60 0 0 1 90 150" fill="#d32f2f" opacity="0.3"/>
      <path d="M 90 150 A 60 60 0 0 1 150 90" fill="#1976d2" opacity="0.3"/>
    </g>
    
    <!-- Winding wires indication -->
    <g stroke="#8B4513" stroke-width="2" fill="none" opacity="0.6">
      <circle cx="130" cy="130" r="8"/>
      <circle cx="170" cy="130" r="8"/>
      <circle cx="170" cy="170" r="8"/>
      <circle cx="130" cy="170" r="8"/>
    </g>
    
    <!-- Motor mounting holes -->
    <circle cx="100" cy="100" r="4" fill="#333"/>
    <circle cx="200" cy="100" r="4" fill="#333"/>
    <circle cx="200" cy="200" r="4" fill="#333"/>
    <circle cx="100" cy="200" r="4" fill="#333"/>
    
    <!-- Performance indicators -->
    <g transform="translate(20,20)">
      <text font-family="Arial, sans-serif" font-size="12" font-weight="bold" fill="#333">
        <tspan x="0" y="0">2815-900KV</tspan>
        <tspan x="0" y="15">25.4kg Thrust</tspan>
        <tspan x="0" y="30">98.8% Efficiency</tspan>
      </text>
    </g>
    
    <!-- WelkinRim branding -->
    <text x="150" y="280" font-family="Arial, sans-serif" font-size="14" font-weight="bold"
          text-anchor="middle" fill="#171a20">WelkinRim Precision</text>
  </g>
  
  <!-- Subtle rotation indicators -->
  <g stroke="#171a20" stroke-width="1" fill="none" opacity="0.3">
    <path d="M 150 50 Q 180 80 150 110" marker-end="url(#arrowhead)"/>
    <path d="M 250 150 Q 220 120 190 150" marker-end="url(#arrowhead)"/>
  </g>

  <!-- Arrow marker definition -->
  <defs>
    <marker id="arrowhead" markerWidth="10" markerHeight="7" refX="10" refY="3.5" orient="auto">
      <polygon points="0 0, 10 3.5, 0 7" fill="#171a20" />
    </marker>
  </defs>
</svg>